<?xml version="1.0" encoding="UTF-8" standalone="no"?>
<!-- Created with Inkscape (http://www.inkscape.org/) -->
<svg xmlns:dc="http://purl.org/dc/elements/1.1/" xmlns:cc="http://creativecommons.org/ns#" xmlns:rdf="http://www.w3.org/1999/02/22-rdf-syntax-ns#" xmlns:svg="http://www.w3.org/2000/svg" xmlns="http://www.w3.org/2000/svg" xmlns:sodipodi="http://sodipodi.sourceforge.net/DTD/sodipodi-0.dtd" xmlns:inkscape="http://www.inkscape.org/namespaces/inkscape" width="30" height="64" id="svg3332" sodipodi:version="0.32" inkscape:version="0.46" version="1.0" sodipodi:docname="32nd note.svg" inkscape:output_extension="org.inkscape.output.svg.inkscape">
  <defs id="defs3334">
    <inkscape:perspective sodipodi:type="inkscape:persp3d" inkscape:vp_x="0 : 526.18109 : 1" inkscape:vp_y="0 : 1000 : 0" inkscape:vp_z="744.09448 : 526.18109 : 1" inkscape:persp3d-origin="372.04724 : 350.78739 : 1" id="perspective3340"/>
  </defs>
  <sodipodi:namedview id="base" pagecolor="#ffffff" bordercolor="#666666" borderopacity="1.0" gridtolerance="10000" guidetolerance="10" objecttolerance="10" inkscape:pageopacity="0.0" inkscape:pageshadow="2" inkscape:zoom="3.137037" inkscape:cx="18.571429" inkscape:cy="48.571429" inkscape:document-units="px" inkscape:current-layer="layer1" showgrid="false" inkscape:window-width="788" inkscape:window-height="669" inkscape:window-x="325" inkscape:window-y="192"/>
  <metadata id="metadata3337">
    <rdf:RDF>
      <cc:Work rdf:about="">
        <dc:format>image/svg+xml</dc:format>
        <dc:type rdf:resource="http://purl.org/dc/dcmitype/StillImage"/>
      </cc:Work>
    </rdf:RDF>
  </metadata>
  <g inkscape:label="Layer 1" inkscape:groupmode="layer" id="layer1" transform="translate(-429.54212,-552.81875)">
    <g id="g3327" transform="matrix(6.9560399,0,0,6.9560399,151.13103,397.00323)">
      <path id="text835" d="M 42.425682,25.249999 L 42.425682,27.885913 L 42.517061,27.885913 L 42.60141,27.885913 L 42.60141,27.5204 L 42.60141,27.161915 L 42.629526,27.183003 L 42.784167,27.330614 C 43.040436,27.576188 43.241351,27.80727 43.386912,28.023859 C 43.532473,28.240438 43.624437,28.44516 43.662805,28.638027 C 43.693849,28.807745 43.687991,29.000752 43.645232,29.21705 C 43.602471,29.433335 43.526322,29.645672 43.416786,29.854063 C 43.396577,29.893887 43.384276,29.921418 43.379883,29.936655 C 43.375489,29.951877 43.373732,29.968864 43.374611,29.987616 C 43.378564,30.033444 43.393501,30.071811 43.419422,30.102717 C 43.445341,30.133608 43.479608,30.15616 43.522223,30.170372 C 43.565421,30.184277 43.607303,30.186327 43.647868,30.176523 C 43.688431,30.166704 43.721526,30.145909 43.747154,30.11414 C 43.777759,30.076497 43.816712,29.997127 43.864013,29.876029 C 43.911312,29.754916 43.952022,29.628099 43.986144,29.495578 C 44.031831,29.312083 44.05819,29.136062 44.065221,28.967517 C 44.072249,28.798958 44.059948,28.642268 44.028318,28.497445 C 44.016894,28.442378 43.999322,28.380288 43.9756,28.311174 C 43.951875,28.242049 43.927274,28.179958 43.901794,28.124903 L 43.85962,28.040554 L 43.894765,27.970262 C 43.98951,27.739761 44.033735,27.511901 44.02744,27.286682 C 44.021141,27.061453 43.965201,26.830079 43.85962,26.592558 L 43.824474,26.515238 L 43.845562,26.473063 C 43.863426,26.433374 43.880413,26.387978 43.896522,26.336874 C 43.91263,26.285763 43.926102,26.235095 43.93694,26.18487 C 43.943675,26.149867 43.947775,26.117943 43.949241,26.089098 C 43.950704,26.060246 43.95129,26.012507 43.950998,25.94588 C 43.95129,25.871193 43.948947,25.806173 43.943969,25.750822 C 43.938989,25.695465 43.929616,25.63396 43.915853,25.566308 C 43.866648,25.347232 43.76824,25.103556 43.62063,24.835282 C 43.58358,24.771432 43.539941,24.698798 43.489713,24.617379 C 43.439483,24.535957 43.373,24.428177 43.290262,24.29404 L 43.086418,23.977731 C 42.926066,23.724535 42.80745,23.496382 42.73057,23.293271 C 42.653689,23.090159 42.610636,22.89188 42.60141,22.698434 L 42.60141,22.614084 L 42.510032,22.614084 L 42.425682,22.614084 L 42.425682,25.249999 L 42.425682,25.249999 z M 42.713876,24.237808 C 42.895314,24.463909 43.043804,24.665409 43.159345,24.842311 C 43.274885,25.019207 43.365385,25.185563 43.430844,25.341377 C 43.484294,25.467752 43.523247,25.594568 43.547703,25.721827 C 43.572157,25.84908 43.577722,25.956567 43.564397,26.044288 L 43.564397,26.072404 L 43.437873,25.896676 C 43.401263,25.848641 43.362017,25.795337 43.320136,25.736764 C 43.278253,25.678185 43.242522,25.628396 43.212942,25.587396 C 43.029306,25.333027 42.892239,25.114246 42.801739,24.931053 C 42.711239,24.747855 42.651492,24.565977 42.622497,24.385419 C 42.614882,24.333577 42.609025,24.275587 42.604924,24.211448 C 42.600824,24.147306 42.601996,24.113918 42.608439,24.111284 C 42.609318,24.115675 42.619861,24.129733 42.64007,24.153458 C 42.660278,24.17718 42.68488,24.205296 42.713876,24.237808 L 42.713876,24.237808 z M 43.030185,26.079433 C 43.098426,26.157628 43.155244,26.226162 43.200641,26.285034 C 43.246037,26.3439 43.292312,26.408919 43.339466,26.480092 C 43.465843,26.669435 43.552242,26.849555 43.598664,27.020455 C 43.645085,27.191345 43.652407,27.35565 43.62063,27.513371 C 43.617115,27.534892 43.6136,27.553344 43.610086,27.568725 C 43.606571,27.584096 43.603056,27.593761 43.599543,27.59772 C 43.59837,27.604744 43.579626,27.583657 43.54331,27.534458 C 43.527933,27.511755 43.502452,27.476316 43.466869,27.428143 C 43.431283,27.379959 43.393501,27.328705 43.353524,27.274381 C 43.189511,27.057207 43.067673,26.888801 42.988011,26.769164 C 42.908347,26.649519 42.842742,26.532074 42.791196,26.41683 C 42.731009,26.292206 42.684441,26.167147 42.651492,26.041652 C 42.618543,25.91615 42.601849,25.799877 42.60141,25.692832 L 42.60141,25.62957 L 42.763079,25.798269 C 42.810672,25.846005 42.859583,25.89638 42.909812,25.949395 C 42.96004,26.002403 43.000165,26.045749 43.030185,26.079433 L 43.030185,26.079433 z" style="font-size:7.02919579px;font-family:Emmentaler"/>
      <path id="rect841" d="M 42.443251,22.543793 L 42.531116,22.543793 C 42.570058,22.543793 42.601408,22.575143 42.601408,22.614085 L 42.601408,30.051301 C 42.601408,30.090242 42.570058,30.121593 42.531116,30.121593 L 42.443251,30.121593 C 42.404309,30.121593 42.372959,30.090242 42.372959,30.051301 L 42.372959,22.614085 C 42.372959,22.575143 42.404309,22.543793 42.443251,22.543793 z"/>
      <path id="text845" d="M 41.5467,29.446477 C 41.292626,29.484992 41.062716,29.576663 40.856969,29.721491 C 40.651221,29.86632 40.496874,30.044098 40.393927,30.254824 C 40.35556,30.333462 40.328615,30.406389 40.313092,30.473605 C 40.297569,30.540821 40.291712,30.615505 40.295519,30.697658 C 40.295227,30.744811 40.295812,30.780542 40.297277,30.804852 C 40.298741,30.82916 40.302841,30.854348 40.309578,30.880415 C 40.35717,31.053798 40.45177,31.19028 40.593378,31.28986 C 40.734984,31.389438 40.912176,31.445085 41.124954,31.456801 C 41.434233,31.460461 41.722426,31.372305 41.989534,31.192331 C 42.256638,31.012356 42.439394,30.78186 42.537804,30.500843 C 42.554935,30.446953 42.566357,30.398335 42.572071,30.354989 C 42.57778,30.311643 42.580416,30.25951 42.579979,30.198591 C 42.580269,30.151584 42.579683,30.11556 42.578221,30.090519 C 42.576755,30.065478 42.572654,30.03824 42.56592,30.008806 C 42.54776,29.944373 42.520815,29.881696 42.485086,29.820777 C 42.449352,29.759859 42.408349,29.707726 42.362076,29.664379 C 42.248437,29.564801 42.103169,29.496853 41.926272,29.460535 C 41.876188,29.450285 41.812926,29.444428 41.736486,29.442962 C 41.660043,29.441499 41.596781,29.442671 41.5467,29.446477 L 41.5467,29.446477 z" style="font-size:7.02919579px;font-family:Emmentaler"/>
    </g>
  </g>
</svg>