<?xml version="1.0" encoding="UTF-8" standalone="no"?>
<!-- Created with Inkscape (http://www.inkscape.org/) -->
<svg xmlns:dc="http://purl.org/dc/elements/1.1/" xmlns:cc="http://creativecommons.org/ns#" xmlns:rdf="http://www.w3.org/1999/02/22-rdf-syntax-ns#" xmlns:svg="http://www.w3.org/2000/svg" xmlns="http://www.w3.org/2000/svg" xmlns:sodipodi="http://sodipodi.sourceforge.net/DTD/sodipodi-0.dtd" xmlns:inkscape="http://www.inkscape.org/namespaces/inkscape" width="30" height="64" id="svg3332" sodipodi:version="0.32" inkscape:version="0.46" version="1.0" sodipodi:docname="64th note.svg" inkscape:output_extension="org.inkscape.output.svg.inkscape">
  <defs id="defs3334">
    <inkscape:perspective sodipodi:type="inkscape:persp3d" inkscape:vp_x="0 : 526.18109 : 1" inkscape:vp_y="0 : 1000 : 0" inkscape:vp_z="744.09448 : 526.18109 : 1" inkscape:persp3d-origin="372.04724 : 350.78739 : 1" id="perspective3340"/>
  </defs>
  <sodipodi:namedview id="base" pagecolor="#ffffff" bordercolor="#666666" borderopacity="1.0" gridtolerance="10000" guidetolerance="10" objecttolerance="10" inkscape:pageopacity="0.0" inkscape:pageshadow="2" inkscape:zoom="3.5291667" inkscape:cx="27.142857" inkscape:cy="25.714286" inkscape:document-units="px" inkscape:current-layer="layer1" showgrid="false" inkscape:window-width="799" inkscape:window-height="669" inkscape:window-x="161" inkscape:window-y="161"/>
  <metadata id="metadata3337">
    <rdf:RDF>
      <cc:Work rdf:about="">
        <dc:format>image/svg+xml</dc:format>
        <dc:type rdf:resource="http://purl.org/dc/dcmitype/StillImage"/>
      </cc:Work>
    </rdf:RDF>
  </metadata>
  <g inkscape:label="Layer 1" inkscape:groupmode="layer" id="layer1" transform="translate(-249.54053,-481.82949)">
    <g id="g3327" transform="matrix(6.3318504,0,0,6.3318504,-2.5523925,345.64904)">
      <path id="text835" d="M 42.425682,25.249988 L 42.425682,28.764541 L 42.517061,28.764541 L 42.60141,28.764541 L 42.60141,28.370911 L 42.60141,27.970252 L 42.798225,28.167067 C 42.918744,28.290802 43.018616,28.398289 43.09784,28.489527 C 43.177064,28.580752 43.250576,28.672423 43.318379,28.764541 C 43.410049,28.892083 43.485026,29.018314 43.54331,29.143234 C 43.601592,29.268139 43.641424,29.385584 43.662805,29.495568 C 43.693556,29.673923 43.686527,29.877767 43.641717,30.1071 C 43.596906,30.336416 43.519586,30.554318 43.409757,30.760807 C 43.392916,30.790085 43.382665,30.810587 43.379005,30.822311 C 43.375343,30.834017 43.373878,30.851004 43.374611,30.873272 C 43.378564,30.919099 43.393501,30.957466 43.419422,30.988374 C 43.445341,31.019263 43.479608,31.041815 43.522223,31.056029 C 43.585484,31.075935 43.641716,31.071249 43.690921,31.041971 C 43.71479,31.028782 43.735584,31.011209 43.753305,30.989252 C 43.771023,30.967277 43.79006,30.935646 43.810416,30.89436 C 43.895057,30.702368 43.95949,30.504675 44.003716,30.301279 C 44.04794,30.097866 44.070198,29.90193 44.070493,29.71347 C 44.070491,29.573319 44.051161,29.431859 44.012503,29.289088 C 43.973841,29.146302 43.915851,28.999569 43.838532,28.84889 C 43.82418,28.823256 43.812465,28.800704 43.803387,28.781235 C 43.794306,28.761751 43.78962,28.7515 43.789329,28.750483 C 43.789474,28.746668 43.792696,28.740225 43.798994,28.731153 C 43.805289,28.722066 43.813783,28.712108 43.824474,28.701279 C 43.888321,28.615898 43.93811,28.523055 43.973843,28.42275 C 44.009572,28.322433 44.027731,28.220804 44.028318,28.117863 C 44.027292,27.998362 44.010012,27.870081 43.976479,27.73302 C 43.942943,27.595946 43.899304,27.47118 43.845562,27.35872 L 43.824474,27.323574 L 43.852591,27.267341 C 43.888028,27.199241 43.919073,27.1228 43.945726,27.038017 C 43.972377,26.953223 43.992878,26.867995 44.007231,26.782333 C 44.017773,26.714819 44.023045,26.633692 44.023046,26.53895 C 44.023045,26.444199 44.017773,26.361314 44.007231,26.290296 C 43.992879,26.208285 43.972377,26.124521 43.945726,26.039005 C 43.919073,25.95348 43.888028,25.873231 43.852591,25.798258 L 43.824474,25.734996 L 43.852591,25.664705 C 43.89125,25.560436 43.919366,25.459686 43.93694,25.362454 C 43.954511,25.265214 43.96154,25.164464 43.958027,25.060202 C 43.95129,24.910684 43.926102,24.759851 43.882464,24.607703 C 43.838824,24.45555 43.774976,24.292416 43.690921,24.118302 C 43.648892,24.033072 43.597638,23.939936 43.53716,23.838895 C 43.476679,23.73785 43.385008,23.591996 43.262146,23.401333 C 43.151876,23.22619 43.064891,23.084436 43.00119,22.976072 C 42.937489,22.867706 42.883892,22.768127 42.840399,22.677336 C 42.76674,22.523866 42.710215,22.377426 42.670822,22.238016 C 42.63143,22.098605 42.608293,21.959195 42.60141,21.819785 L 42.60141,21.735435 L 42.510032,21.735435 L 42.425682,21.735435 L 42.425682,25.249988 L 42.425682,25.249988 z M 42.727934,23.387275 C 42.979078,23.703876 43.170913,23.984454 43.303442,24.229011 C 43.435969,24.473562 43.520611,24.701422 43.557368,24.912591 C 43.564396,24.96516 43.567911,25.030472 43.567912,25.108527 C 43.567911,25.186576 43.564396,25.236073 43.557368,25.257017 C 43.554585,25.264775 43.551363,25.266825 43.547703,25.263168 C 43.544041,25.259503 43.535548,25.245738 43.522223,25.221872 C 43.510214,25.20576 43.486783,25.172958 43.451932,25.123464 C 43.417078,25.073964 43.37959,25.020074 43.339466,24.961795 C 43.198298,24.762927 43.088761,24.6036 43.010855,24.483816 C 42.932949,24.364025 42.869101,24.253903 42.819312,24.153448 C 42.745653,24.006713 42.690884,23.864374 42.655007,23.726429 C 42.619129,23.588481 42.601263,23.449657 42.60141,23.309955 C 42.601117,23.272611 42.601703,23.250645 42.603167,23.244057 C 42.604632,23.237466 42.608732,23.238344 42.615468,23.246693 C 42.619715,23.251231 42.632308,23.266754 42.653249,23.293261 C 42.67419,23.319765 42.699085,23.351103 42.727934,23.387275 L 42.727934,23.387275 z M 42.875545,25.102377 C 43.018616,25.255842 43.138404,25.398767 43.234908,25.531152 C 43.331411,25.66353 43.410781,25.792397 43.473019,25.917753 C 43.557367,26.087619 43.610085,26.245188 43.631174,26.39046 C 43.65226,26.535724 43.641716,26.682749 43.599543,26.831537 C 43.595588,26.846176 43.591195,26.859062 43.586363,26.870197 C 43.58153,26.881321 43.578894,26.887179 43.578456,26.88777 L 43.536281,26.831537 C 43.524125,26.811909 43.497473,26.772077 43.456325,26.712042 C 43.415174,26.651997 43.369192,26.584049 43.318379,26.508198 L 43.065331,26.156743 C 42.90454,25.916431 42.786802,25.694136 42.712118,25.489856 C 42.637434,25.285569 42.600531,25.086119 42.60141,24.891504 L 42.60141,24.807154 L 42.685759,24.898533 C 42.711679,24.924596 42.742431,24.956813 42.778016,24.995183 C 42.813601,25.033547 42.84611,25.069278 42.875545,25.102377 L 42.875545,25.102377 z M 42.727934,26.522256 C 42.918891,26.722873 43.072945,26.899772 43.190098,27.052954 C 43.307249,27.206124 43.401556,27.354907 43.473019,27.499302 C 43.518414,27.589356 43.554146,27.672827 43.580213,27.749714 C 43.606278,27.826588 43.624437,27.904787 43.634688,27.98431 C 43.642009,28.053423 43.643181,28.115514 43.638203,28.170581 C 43.633223,28.225636 43.620336,28.280697 43.599543,28.335765 C 43.585923,28.370026 43.576258,28.391113 43.570548,28.399027 C 43.564836,28.406928 43.560443,28.406928 43.557368,28.399027 C 43.556196,28.394188 43.542723,28.373979 43.516951,28.338401 C 43.491177,28.30281 43.460131,28.259757 43.423815,28.209241 C 43.258484,27.987379 43.144554,27.83186 43.082025,27.742684 C 43.019495,27.653497 42.967069,27.570026 42.924749,27.492273 C 42.830295,27.34158 42.757368,27.194848 42.705968,27.052075 C 42.654567,26.909291 42.622058,26.76783 42.608439,26.627693 C 42.605071,26.58727 42.603021,26.539824 42.602288,26.485353 C 42.601556,26.430873 42.601263,26.400999 42.60141,26.395732 C 42.605803,26.396606 42.619861,26.408907 42.643585,26.432635 C 42.667308,26.456354 42.695424,26.486227 42.727934,26.522256 L 42.727934,26.522256 z" style="font-size:7.02919579px;font-family:Emmentaler"/>
      <path id="rect841" d="M 42.443251,21.665144 L 42.531116,21.665144 C 42.570058,21.665144 42.601408,21.696494 42.601408,21.735436 L 42.601408,30.051302 C 42.601408,30.090243 42.570058,30.121593 42.531116,30.121593 L 42.443251,30.121593 C 42.404309,30.121593 42.372959,30.090243 42.372959,30.051302 L 42.372959,21.735436 C 42.372959,21.696494 42.404309,21.665144 42.443251,21.665144 z"/>
      <path id="text845" d="M 41.5467,29.446477 C 41.292626,29.484992 41.062716,29.576663 40.856969,29.721491 C 40.651221,29.86632 40.496874,30.044098 40.393927,30.254824 C 40.35556,30.333462 40.328615,30.406389 40.313092,30.473605 C 40.297569,30.540821 40.291712,30.615505 40.295519,30.697658 C 40.295227,30.744811 40.295812,30.780542 40.297277,30.804852 C 40.298741,30.82916 40.302841,30.854348 40.309578,30.880415 C 40.35717,31.053798 40.45177,31.19028 40.593378,31.28986 C 40.734984,31.389438 40.912176,31.445085 41.124954,31.456801 C 41.434233,31.460461 41.722426,31.372305 41.989534,31.192331 C 42.256638,31.012356 42.439394,30.78186 42.537804,30.500843 C 42.554935,30.446953 42.566357,30.398335 42.572071,30.354989 C 42.57778,30.311643 42.580416,30.25951 42.579979,30.198591 C 42.580269,30.151584 42.579683,30.11556 42.578221,30.090519 C 42.576755,30.065478 42.572654,30.03824 42.56592,30.008806 C 42.54776,29.944373 42.520815,29.881696 42.485086,29.820777 C 42.449352,29.759859 42.408349,29.707726 42.362076,29.664379 C 42.248437,29.564801 42.103169,29.496853 41.926272,29.460535 C 41.876188,29.450285 41.812926,29.444428 41.736486,29.442962 C 41.660043,29.441499 41.596781,29.442671 41.5467,29.446477 L 41.5467,29.446477 z" style="font-size:7.02919579px;font-family:Emmentaler"/>
    </g>
  </g>
</svg>