<?xml version="1.0" encoding="UTF-8" standalone="no"?>
<!-- Created with Inkscape (http://www.inkscape.org/) -->
<svg xmlns:dc="http://purl.org/dc/elements/1.1/" xmlns:cc="http://creativecommons.org/ns#" xmlns:rdf="http://www.w3.org/1999/02/22-rdf-syntax-ns#" xmlns:svg="http://www.w3.org/2000/svg" xmlns="http://www.w3.org/2000/svg" xmlns:sodipodi="http://sodipodi.sourceforge.net/DTD/sodipodi-0.dtd" xmlns:inkscape="http://www.inkscape.org/namespaces/inkscape" width="106" height="348" id="svg2" sodipodi:version="0.32" inkscape:version="0.46" version="1.0" sodipodi:docname="llpd0.svg" inkscape:output_extension="org.inkscape.output.svg.inkscape">
  <defs id="defs4">
    <inkscape:perspective sodipodi:type="inkscape:persp3d" inkscape:vp_x="0 : 526.18109 : 1" inkscape:vp_y="0 : 1000 : 0" inkscape:vp_z="744.09448 : 526.18109 : 1" inkscape:persp3d-origin="372.04724 : 350.78739 : 1" id="perspective10"/>
    <inkscape:perspective id="perspective2447" inkscape:persp3d-origin="372.04724 : 350.78739 : 1" inkscape:vp_z="744.09448 : 526.18109 : 1" inkscape:vp_y="0 : 1000 : 0" inkscape:vp_x="0 : 526.18109 : 1" sodipodi:type="inkscape:persp3d"/>
  </defs>
  <sodipodi:namedview id="base" pagecolor="#ffffff" bordercolor="#666666" borderopacity="1.0" inkscape:pageopacity="0.0" inkscape:pageshadow="2" inkscape:zoom="1.6666667" inkscape:cx="53" inkscape:cy="174" inkscape:document-units="px" inkscape:current-layer="layer1" showgrid="false" inkscape:window-width="828" inkscape:window-height="785" inkscape:window-x="88" inkscape:window-y="-2"/>
  <metadata id="metadata7">
    <rdf:RDF>
      <cc:Work rdf:about="">
        <dc:format>image/svg+xml</dc:format>
        <dc:type rdf:resource="http://purl.org/dc/dcmitype/StillImage"/>
      </cc:Work>
    </rdf:RDF>
  </metadata>
  <g inkscape:label="Calque 1" inkscape:groupmode="layer" id="layer1">
    <g id="g2453">
      <path style="fill:#010101" d="M 66.61286,320.84315 C 64.805667,319.79356 64.742121,318.17445 65.11286,282.62356 L 65.5,245.5 L 62,245.56379 C 60.075,245.59887 51.075,247.32926 42,249.40909 C 20.083352,254.43201 15.849529,254.84953 13.244763,252.24476 C 10.986338,249.98634 10.943053,248.75921 8.9679622,131 C 7.6544471,52.685357 7.7097889,27.690211 9.2,26.2 C 10.706751,24.693249 17.453715,24.63727 20.203121,26.108707 C 22.252486,27.205494 22.270595,27.616751 21.88738,64.358707 L 21.5,101.5 L 25,101.43621 C 26.925,101.40113 35.925,99.670743 45,97.590908 C 66.833242,92.587101 71.155059,92.155059 73.719854,94.719854 C 76.353767,97.353767 76.651799,106.06811 78.164429,224.67735 C 79.150878,302.02738 79.132272,319.1357 78.060294,320.42735 C 76.540709,322.25834 69.490449,322.51442 66.61286,320.84315 z M 35.661336,214.47043 C 49.2338,211.30284 62.99097,208.00194 65.134277,207.39867 C 66.410233,207.03954 66.89879,205.13656 67.362552,198.71934 C 68.228165,186.74158 68.616094,130.284 67.838133,129.50537 C 67.474106,129.14103 60.049106,130.52033 51.338133,132.57049 C 42.62716,134.62065 32.35,137.03321 28.5,137.93173 L 21.5,139.5654 L 20.858534,145.5327 C 20.505727,148.81471 20.168227,166.2375 20.108534,184.25 L 20,217 L 22.411336,217 C 23.737571,217 29.700071,215.8617 35.661336,214.47043 z" id="path2455"/>
    </g>
  </g>
</svg>