<?xml version="1.0" encoding="UTF-8" standalone="no"?>
<!-- Created with Inkscape (http://www.inkscape.org/) -->
<svg xmlns:svg="http://www.w3.org/2000/svg" xmlns="http://www.w3.org/2000/svg" version="1.0" width="133" height="200" id="svg1307">
  <defs id="defs1309"/>
  <g id="layer1">
    <g transform="matrix(0.937341,0,0,0.94,-7.058383,167.5102)" id="g1345">
      <path d="M 22.729952,-171.81941 L 22.729952,-85.186582 C 22.729943,-85.186522 22.729943,-77.967127 22.729952,-63.528375 C 32.882217,-72.778187 44.275325,-77.515915 56.90931,-77.741573 C 64.80548,-77.741521 71.573663,-74.470232 77.213879,-67.927698 C 82.177149,-61.836291 80.528979,-55.421661 80.754656,-47.976682 C 80.980191,-42.110901 80.220858,-36.049825 77.062439,-28.37922 C 75.934342,-25.220733 76.988209,-20.775981 73.152965,-17.166275 C 70.220026,-14.45901 67.174344,-11.638934 64.015909,-8.7060383 C 47.321007,3.4766743 30.626156,15.772207 13.931305,28.180596 L 13.931305,-171.81941 L 22.729952,-171.81941 M 50.14112,-56.083366 C 47.43381,-59.241821 43.936916,-60.821063 39.650426,-60.821099 C 34.235854,-60.821063 29.836535,-57.775381 26.452456,-51.684043 C 23.970776,-46.946288 22.729943,-35.778787 22.729952,-18.181504 L 22.729952,10.921712 C 22.955549,11.8241 29.27252,6.2967506 41.680883,-5.660353 C 48.449038,-11.977343 52.848357,-19.422345 54.878853,-27.995379 C 55.781236,-31.379468 56.232448,-34.763559 56.232491,-38.147664 C 56.232448,-45.592652 54.201993,-51.571213 50.14112,-56.083366" style="font-size:338.40948486px;font-style:normal;font-weight:normal;line-height:125%;fill:#000000;fill-opacity:1;stroke:none;stroke-width:1px;stroke-linecap:butt;stroke-linejoin:miter;stroke-opacity:1;font-family:Bitstream Vera Sans" id="text1329"/>
      <path d="M 80.729952,-171.81941 L 80.729952,-85.186582 C 80.729943,-85.186522 80.729943,-77.967127 80.729952,-63.528375 C 90.882217,-72.778187 102.27533,-77.515915 114.90931,-77.741573 C 122.80548,-77.741521 129.57366,-74.470232 135.21388,-67.927698 C 140.17715,-61.836291 142.77162,-55.068108 142.9973,-47.623129 C 143.22283,-41.757348 141.75639,-34.989165 138.59797,-27.31856 C 137.46988,-24.160073 134.98821,-20.775981 131.15296,-17.166275 C 128.22003,-14.45901 125.17434,-11.638934 122.01591,-8.7060383 C 105.32101,3.4766743 88.626156,15.772207 71.931305,28.180596 L 71.931305,-171.81941 L 80.729952,-171.81941 M 108.14112,-56.083366 C 105.43381,-59.241821 101.93692,-60.821063 97.650426,-60.821099 C 92.235854,-60.821063 87.836535,-57.775381 84.452456,-51.684043 C 81.970776,-46.946288 80.729943,-35.778787 80.729952,-18.181504 L 80.729952,10.921712 C 80.955549,11.8241 87.27252,6.2967506 99.680883,-5.660353 C 106.44904,-11.977343 110.84836,-19.422345 112.87885,-27.995379 C 113.78124,-31.379468 114.23245,-34.763559 114.23249,-38.147664 C 114.23245,-45.592652 112.20199,-51.571213 108.14112,-56.083366" style="font-size:338.40948486px;font-style:normal;font-weight:normal;line-height:125%;fill:#000000;fill-opacity:1;stroke:none;stroke-width:1px;stroke-linecap:butt;stroke-linejoin:miter;stroke-opacity:1;font-family:Bitstream Vera Sans" id="text1333"/>
    </g>
  </g>
</svg>