<?xml version="1.0" encoding="UTF-8" standalone="no"?>
<!-- Created with Inkscape (http://www.inkscape.org/) -->
<svg xmlns:svg="http://www.w3.org/2000/svg" xmlns="http://www.w3.org/2000/svg" version="1.0" width="6" height="7" id="svg1361">
  <defs id="defs1363"/>
  <g id="layer1">
    <g transform="translate(-119.009,-441.814)" style="fill:#000000" id="g2131">
      <path d="M 125.009,448.30721 C 124.27443,448.19192 123.52769,448.19209 122.7858,448.19294 C 122.77007,447.65011 122.85674,447.0729 122.6415,446.56343 C 122.49821,446.22426 122.22532,445.95665 121.98269,445.68155 C 121.59552,446.0278 121.27751,446.48475 121.24704,447.01638 C 121.21706,447.40767 121.23902,447.80085 121.2322,448.19294 C 120.4904,448.20416 119.74082,448.16828 119.009,448.314 C 119.15012,447.5863 119.11805,446.84171 119.13083,446.1048 C 119.6957,446.08953 120.30023,446.17101 120.82484,445.92526 C 121.13441,445.78023 121.39653,445.55295 121.6591,445.33676 C 121.3173,444.94965 120.87346,444.60861 120.33665,444.57651 C 119.93573,444.54485 119.53266,444.56793 119.13083,444.56097 C 119.10566,443.82949 119.19105,443.08855 119.03921,442.3663 C 119.76267,442.49697 120.50065,442.46343 121.2322,442.47284 C 121.24306,442.99383 121.18483,443.53381 121.33191,444.0355 C 121.44414,444.41838 121.74978,444.71293 122.0051,445.01521 C 122.36553,444.70111 122.69057,444.30706 122.75011,443.81412 C 122.804,443.36793 122.76123,442.91977 122.7858,442.47284 C 123.52263,442.45348 124.28215,442.54713 124.99535,442.314 C 124.88891,443.05711 124.87889,443.81152 124.88717,444.56097 C 124.36127,444.57582 123.80954,444.51747 123.30955,444.69457 C 122.92975,444.8291 122.63114,445.12341 122.32869,445.38325 C 122.65661,445.71867 123.0516,446.02802 123.5403,446.07368 C 123.98834,446.11554 124.43829,446.09658 124.88717,446.1048 C 124.89828,446.83958 124.86193,447.5825 125.009,448.30721 z " id="path2133"/>
    </g>
  </g>
</svg>