<?xml version="1.0" encoding="UTF-8" standalone="no"?>
<!-- Created with Inkscape (http://www.inkscape.org/) -->
<svg xmlns:dc="http://purl.org/dc/elements/1.1/" xmlns:cc="http://web.resource.org/cc/" xmlns:rdf="http://www.w3.org/1999/02/22-rdf-syntax-ns#" xmlns:svg="http://www.w3.org/2000/svg" xmlns="http://www.w3.org/2000/svg" xmlns:sodipodi="http://sodipodi.sourceforge.net/DTD/sodipodi-0.dtd" xmlns:inkscape="http://www.inkscape.org/namespaces/inkscape" width="75" height="195" id="svg2" sodipodi:version="0.32" inkscape:version="0.45.1" sodipodi:docbase="C:\Documents and Settings\Mattias\Desktop" sodipodi:docname="1-128_note_quarter_demisemiquaver_(music).svg" inkscape:output_extension="org.inkscape.output.svg.inkscape" version="1.0">
  <defs id="defs4"/>
  <sodipodi:namedview id="base" pagecolor="#ffffff" bordercolor="#666666" borderopacity="1.0" gridtolerance="10000" guidetolerance="10" objecttolerance="10" inkscape:pageopacity="0.0" inkscape:pageshadow="2" inkscape:zoom="2.16" inkscape:cx="-12.964507" inkscape:cy="68.981481" inkscape:document-units="px" inkscape:current-layer="layer1" inkscape:window-width="765" inkscape:window-height="579" inkscape:window-x="1711" inkscape:window-y="365"/>
  <metadata id="metadata7">
    <rdf:RDF>
      <cc:Work rdf:about="">
        <dc:format>image/svg+xml</dc:format>
        <dc:type rdf:resource="http://purl.org/dc/dcmitype/StillImage"/>
      </cc:Work>
    </rdf:RDF>
  </metadata>
  <g inkscape:label="Layer 1" inkscape:groupmode="layer" id="layer1">
    <g id="g2212">
      <path id="path2308" style="color:#000000;fill:#000000;fill-opacity:1;fill-rule:evenodd;stroke:none;stroke-width:1.5;stroke-linecap:butt;stroke-linejoin:miter;marker:none;marker-start:none;marker-mid:none;marker-end:none;stroke-miterlimit:4;stroke-dasharray:none;stroke-dashoffset:0;stroke-opacity:1;visibility:visible;display:inline;overflow:visible" d="M 39.80669,118.18777 L 39.80669,131.75027 C 40.97851,132.96911 43.71289,134.56286 48.02544,136.53152 C 58.71287,139.85973 64.05662,143.1566 64.05669,146.43777 C 64.05662,150.37534 62.63474,153.48471 59.77544,155.78152 L 61.86919,158.03152 L 62.15044,158.03152 C 67.86912,153.53158 70.74411,147.87534 70.74419,141.03152 C 70.74411,134.56286 65.11911,129.68786 53.86919,126.40652 C 45.75976,123.45349 41.07226,120.71912 39.80669,118.18777 z "/>
      <path id="path2310" style="font-size:144px;font-style:normal;font-variant:normal;font-weight:normal;font-stretch:normal;text-align:start;line-height:100%;writing-mode:lr-tb;text-anchor:start;fill:#000000;fill-opacity:1;stroke:none;stroke-width:1px;stroke-linecap:butt;stroke-linejoin:miter;stroke-opacity:1;font-family:Bitstream Vera Sans" d="M 33.11919,5.70982 L 32.55669,6.6676126 L 32.55669,173.32343 L 32.55669,173.38332 L 32.99419,174.81999 L 39.49419,173.8622 L 39.80669,173.32343 L 39.80669,100.35165 L 39.80669,37.915587 L 39.80669,11.935472 L 39.80669,6.6676126 L 39.24419,5.70982 L 33.11919,5.70982 z "/>
      <path id="path2312" style="color:#000000;fill:#000000;fill-opacity:1;fill-rule:evenodd;stroke:none;stroke-width:1.5;stroke-linecap:butt;stroke-linejoin:miter;marker:none;marker-start:none;marker-mid:none;marker-end:none;stroke-miterlimit:4;stroke-dasharray:none;stroke-dashoffset:0;stroke-opacity:1;visibility:visible;display:inline;overflow:visible" d="M 39.80669,91.01096 L 39.80669,104.57346 C 40.97851,105.7923 43.71289,107.38605 48.02544,109.35471 C 58.71287,112.68292 64.05662,115.97979 64.05669,119.26096 C 64.05662,123.19853 62.63474,126.3079 59.77544,128.60471 L 61.86919,130.85471 L 62.15044,130.85471 C 67.86912,126.35477 70.74411,120.69853 70.74419,113.85471 C 70.74411,107.38605 65.11911,102.51105 53.86919,99.22971 C 45.75976,96.27668 41.07226,93.54231 39.80669,91.01096 z "/>
      <path id="path2314" style="font-size:144px;font-style:normal;font-variant:normal;font-weight:normal;font-stretch:normal;text-align:start;line-height:100%;writing-mode:lr-tb;text-anchor:start;fill:#000000;fill-opacity:1;stroke:none;stroke-width:1px;stroke-linecap:butt;stroke-linejoin:miter;stroke-opacity:1;font-family:Bitstream Vera Sans" d="M 17.93169,166.79221 C 7.99417,167.87035 3.02543,171.49535 3.02544,177.63596 C 3.02543,185.51097 8.71293,189.44846 20.05669,189.44846 L 24.05669,189.44846 C 34.55664,187.33909 39.80664,182.68284 39.80669,175.51096 L 39.80669,171.29221 L 32.55669,171.29221 C 28.38478,168.29223 24.05665,166.79223 19.55669,166.79221 L 17.93169,166.79221 z "/>
      <path id="path2316" style="color:#000000;fill:#000000;fill-opacity:1;fill-rule:evenodd;stroke:none;stroke-width:1.5;stroke-linecap:butt;stroke-linejoin:miter;marker:none;marker-start:none;marker-mid:none;marker-end:none;stroke-miterlimit:4;stroke-dasharray:none;stroke-dashoffset:0;stroke-opacity:1;visibility:visible;display:inline;overflow:visible" d="M 39.8071,64.3292 L 39.8071,77.8917 C 40.97892,79.11054 43.7133,80.70429 48.02585,82.67295 C 58.71328,86.00116 64.05703,89.29803 64.0571,92.5792 C 64.05703,96.51677 62.63515,99.62614 59.77585,101.92295 L 61.8696,104.17295 L 62.15085,104.17295 C 67.86953,99.67301 70.74452,94.01677 70.7446,87.17295 C 70.74452,80.70429 65.11952,75.82929 53.8696,72.54795 C 45.76017,69.59492 41.07267,66.86055 39.8071,64.3292 z "/>
      <path id="path2318" style="color:#000000;fill:#000000;fill-opacity:1;fill-rule:evenodd;stroke:none;stroke-width:1.5;stroke-linecap:butt;stroke-linejoin:miter;marker:none;marker-start:none;marker-mid:none;marker-end:none;stroke-miterlimit:4;stroke-dasharray:none;stroke-dashoffset:0;stroke-opacity:1;visibility:visible;display:inline;overflow:visible" d="M 39.80713,38.25017 L 39.80713,51.81267 C 40.97895,53.03151 43.71333,54.62526 48.02588,56.59392 C 58.71331,59.92213 64.05706,63.219 64.05713,66.50017 C 64.05706,70.43774 62.63518,73.54711 59.77588,75.84392 L 61.86963,78.09392 L 62.15088,78.09392 C 67.86956,73.59398 70.74455,67.93774 70.74463,61.09392 C 70.74455,54.62526 65.11955,49.75026 53.86963,46.46892 C 45.7602,43.51589 41.0727,40.78152 39.80713,38.25017 z "/>
      <path id="path2320" style="color:#000000;fill:#000000;fill-opacity:1;fill-rule:evenodd;stroke:none;stroke-width:1.5;stroke-linecap:butt;stroke-linejoin:miter;marker:none;marker-start:none;marker-mid:none;marker-end:none;stroke-miterlimit:4;stroke-dasharray:none;stroke-dashoffset:0;stroke-opacity:1;visibility:visible;display:inline;overflow:visible" d="M 39.80664,11.25334 L 39.80664,24.81584 C 40.97846,26.03468 43.71284,27.62843 48.02539,29.59709 C 58.71282,32.9253 64.05657,36.22217 64.05664,39.50334 C 64.05657,43.44091 62.63469,46.55028 59.77539,48.84709 L 61.86914,51.09709 L 62.15039,51.09709 C 67.86907,46.59715 70.74406,40.94091 70.74414,34.09709 C 70.74406,27.62843 65.11906,22.75343 53.86914,19.47209 C 45.75971,16.51906 41.07221,13.78469 39.80664,11.25334 z "/>
    </g>
  </g>
</svg>