<?xml version="1.0" encoding="UTF-8" standalone="no"?>
<!-- Created with Inkscape (http://www.inkscape.org/) -->
<svg xmlns:dc="http://purl.org/dc/elements/1.1/" xmlns:cc="http://creativecommons.org/ns#" xmlns:rdf="http://www.w3.org/1999/02/22-rdf-syntax-ns#" xmlns:svg="http://www.w3.org/2000/svg" xmlns="http://www.w3.org/2000/svg" xmlns:sodipodi="http://sodipodi.sourceforge.net/DTD/sodipodi-0.dtd" xmlns:inkscape="http://www.inkscape.org/namespaces/inkscape" width="140" height="348" id="svg2" sodipodi:version="0.32" inkscape:version="0.46" version="1.0" sodipodi:docname="llpd+1plus.svg" inkscape:output_extension="org.inkscape.output.svg.inkscape">
  <defs id="defs4">
    <inkscape:perspective sodipodi:type="inkscape:persp3d" inkscape:vp_x="0 : 526.18109 : 1" inkscape:vp_y="0 : 1000 : 0" inkscape:vp_z="744.09448 : 526.18109 : 1" inkscape:persp3d-origin="372.04724 : 350.78739 : 1" id="perspective10"/>
    <inkscape:perspective id="perspective2447" inkscape:persp3d-origin="372.04724 : 350.78739 : 1" inkscape:vp_z="744.09448 : 526.18109 : 1" inkscape:vp_y="0 : 1000 : 0" inkscape:vp_x="0 : 526.18109 : 1" sodipodi:type="inkscape:persp3d"/>
  </defs>
  <sodipodi:namedview id="base" pagecolor="#ffffff" bordercolor="#666666" borderopacity="1.0" inkscape:pageopacity="0.0" inkscape:pageshadow="2" inkscape:zoom="1.3275862" inkscape:cx="72" inkscape:cy="174" inkscape:document-units="px" inkscape:current-layer="layer1" showgrid="false" inkscape:window-width="793" inkscape:window-height="667" inkscape:window-x="132" inkscape:window-y="163"/>
  <metadata id="metadata7">
    <rdf:RDF>
      <cc:Work rdf:about="">
        <dc:format>image/svg+xml</dc:format>
        <dc:type rdf:resource="http://purl.org/dc/dcmitype/StillImage"/>
      </cc:Work>
    </rdf:RDF>
  </metadata>
  <g inkscape:label="Calque 1" inkscape:groupmode="layer" id="layer1">
    <g id="g2453">
      <path style="fill:#010101" d="M 32.606989,313.41821 C 32.273145,312.54823 32,299.93411 32,285.38683 C 32,264.6645 31.719691,258.82967 30.70548,258.44048 C 29.993494,258.16726 27.461917,258.63139 25.079754,259.47186 C 18.856912,261.66741 13.71853,261.45116 11.404988,258.89636 C 9.7739859,257.09528 9.4497987,254.86044 9.1509573,243.35785 C 8.8019145,229.92297 8.8019145,229.92297 12.240188,226.71149 C 14.131238,224.94517 18.788307,222.18911 22.58923,220.5869 C 26.390154,218.9847 30.0625,217.2421 30.75,216.71446 C 32.600902,215.29393 32.557931,156.15133 30.70548,155.44048 C 29.993494,155.16726 27.461917,155.63139 25.079754,156.47186 C 18.856912,158.66741 13.71853,158.45116 11.404988,155.89636 C 9.7739859,154.09528 9.4497987,151.86044 9.1509573,140.35785 C 8.8019145,126.92297 8.8019145,126.92297 12.240188,123.71149 C 14.131238,121.94517 18.788307,119.18911 22.58923,117.5869 C 26.390154,115.9847 30.0625,114.2421 30.75,113.71446 C 31.704226,112.98211 32,105.14128 32,80.577555 C 32,56.883901 32.316391,48.083609 33.2,47.2 C 34.938458,45.461542 39.675888,45.712994 40.393011,47.581787 C 40.726855,48.451771 41,62.190894 41,78.113172 C 41,101.76221 41.251905,107.15943 42.375807,107.59072 C 43.132501,107.88109 50.602986,104.92012 58.976886,101.01079 C 67.350786,97.101461 76.069172,93.179956 78.351079,92.296335 C 86.473474,89.151107 86,91.27129 86,58.045012 C 86,36.321114 86.320639,28.079361 87.2,27.2 C 88.938458,25.461542 93.675888,25.712994 94.393011,27.581787 C 94.726855,28.451771 95,41.065894 95,55.613172 C 95,76.335495 95.280309,82.170334 96.29452,82.559523 C 97.006506,82.832738 99.538083,82.368615 101.92025,81.528139 C 108.14309,79.332592 113.28147,79.548841 115.59501,82.10364 C 117.22601,83.904723 117.5502,86.139558 117.84904,97.642154 C 118.19809,111.07703 118.19809,111.07703 114.75981,114.28851 C 112.86876,116.05483 108.21169,118.81089 104.41077,120.4131 C 100.60985,122.0153 96.9375,123.7579 96.25,124.28554 C 94.399098,125.70607 94.442069,184.84867 96.29452,185.55952 C 97.006506,185.83274 99.538083,185.36861 101.92025,184.52814 C 108.14309,182.33259 113.28147,182.54884 115.59501,185.10364 C 117.22601,186.90472 117.5502,189.13956 117.84904,200.64215 C 118.19809,214.07703 118.19809,214.07703 114.75981,217.28851 C 112.86876,219.05483 108.21169,221.81089 104.41077,223.4131 C 100.60985,225.0153 96.9375,226.7579 96.25,227.28554 C 95.295774,228.01789 95,235.85872 95,260.42244 C 95,284.1161 94.683609,292.91639 93.8,293.8 C 92.061542,295.53846 87.324112,295.28701 86.606989,293.41821 C 86.273145,292.54823 86,278.58411 86,262.38683 C 86,236.65002 85.803662,232.86189 84.442665,232.33962 C 82.915915,231.75376 46.30064,248.88826 42.75,251.85015 C 41.155517,253.18025 41,255.94443 41,282.95499 C 41,304.67889 40.679361,312.92064 39.8,313.8 C 38.061542,315.53846 33.324112,315.28701 32.606989,313.41821 z M 52.908257,206.08028 C 57.633715,203.92444 66.649894,199.87209 72.944208,197.07506 C 79.238523,194.27804 84.744132,191.42941 85.178896,190.74478 C 85.613659,190.06015 85.976265,176.09838 85.984687,159.71862 C 85.996964,135.84163 85.736172,129.83599 84.669271,129.42658 C 83.93737,129.14573 77.97487,131.45125 71.419271,134.54998 C 64.863672,137.6487 56.125,141.78156 52,143.73409 C 39.933256,149.44579 41,145.97846 41,179.48832 C 41,195.53641 41.3,208.96667 41.666667,209.33333 C 42.810446,210.47711 44.069024,210.11291 52.908257,206.08028 z" id="path2455"/>
    </g>
  </g>
</svg>